<svg width="16" height="16" viewBox="0 0 16 16" fill="none" xmlns="http://www.w3.org/2000/svg">
<g clip-path="url(#clip0)">
<path fill-rule="evenodd" clip-rule="evenodd" d="M15.9517 4.7021C15.9905 5.55545 16 5.82812 16 8.00083L16 7.99833C16 10.1717 15.9905 10.4434 15.9517 11.2967C15.9127 12.1484 15.7778 12.7301 15.58 13.2401C15.3758 13.7668 15.1025 14.2118 14.6575 14.6568C14.2128 15.1018 13.7665 15.3752 13.2403 15.5802C12.7316 15.7768 12.1503 15.9118 11.2986 15.9518C10.4452 15.9902 10.1725 16.0002 7.99983 16.0002C5.82712 16.0002 5.55512 15.9902 4.70176 15.9518C3.85041 15.9118 3.2689 15.7768 2.76006 15.5802C2.23405 15.3752 1.7877 15.1018 1.34303 14.6568C0.898019 14.2123 0.624013 13.7666 0.419676 13.2406C0.221838 12.7316 0.0870022 12.1496 0.0480017 11.2979C0.00916721 10.4445 -0.000332323 10.1727 -0.000332228 7.99983C-0.000332133 5.82729 0.00916743 5.55478 0.048002 4.70143C0.0870026 3.84991 0.221839 3.2684 0.419677 2.75939C0.624014 2.23355 0.89802 1.7872 1.34303 1.34269C1.7877 0.897851 2.23405 0.624512 2.76022 0.420008C3.2689 0.222337 3.85025 0.0875013 4.70193 0.0483338C5.55528 0.00966641 5.82712 -4.44671e-07 7.99983 -3.49698e-07C10.1725 -2.54726e-07 10.4454 0.00999997 11.2987 0.0481675C12.1501 0.0865016 12.7316 0.221504 13.2404 0.419842C13.7665 0.624846 14.2128 0.898185 14.6575 1.34319C15.1023 1.78787 15.3757 2.23421 15.58 2.76039C15.7778 3.26907 15.9127 3.85041 15.9517 4.7021ZM14.5584 7.73417C14.5584 7.57239 14.5585 7.42248 14.5583 7.28312L14.5603 7.28312C14.5586 5.79209 14.5486 5.50609 14.5153 4.76807C14.4795 3.98806 14.3495 3.56455 14.2394 3.28254C14.0941 2.9092 13.9208 2.64253 13.6408 2.36252C13.3608 2.08252 13.0941 1.90885 12.7208 1.76384C12.4387 1.65434 12.0154 1.524 11.2354 1.48834C10.392 1.45 10.14 1.44234 8.00365 1.44234C5.86727 1.44234 5.61394 1.45 4.77058 1.48834C3.99057 1.52384 3.56723 1.65434 3.28555 1.76384C2.91205 1.90918 2.64604 2.08252 2.36604 2.36252C2.08603 2.64253 1.91269 2.9092 1.76769 3.28254C1.65819 3.56471 1.52785 3.98806 1.49185 4.76807C1.45352 5.61142 1.44518 5.86459 1.44518 8.00081C1.44518 10.1368 1.45352 10.3902 1.49185 11.2335C1.52752 12.0136 1.65752 12.4372 1.76752 12.7189C1.91253 13.0924 2.08586 13.3583 2.36587 13.6383C2.64571 13.9183 2.91155 14.0919 3.28489 14.2369C3.56656 14.3464 3.9899 14.4768 4.76992 14.5124C5.61327 14.5508 5.86661 14.5591 8.00165 14.5591C10.1367 14.5591 10.39 14.5508 11.2334 14.5124C12.0134 14.4769 12.4367 14.3464 12.7184 14.2369C13.0918 14.0916 13.3584 13.9183 13.6384 13.6383C13.9184 13.3584 14.0918 13.0922 14.2368 12.7189C14.3463 12.4369 14.4766 12.0136 14.5123 11.2335C14.5506 10.39 14.5583 10.1369 14.5583 8.00081C14.5583 7.90848 14.5583 7.81967 14.5584 7.73417Z" fill="#0D3735"/>
<path fill-rule="evenodd" clip-rule="evenodd" d="M13.2296 12.2712C13.2296 11.7412 12.8001 11.3112 12.27 11.3112C11.7399 11.3112 11.3099 11.7412 11.3099 12.2712C11.3099 12.8012 11.7399 13.2312 12.27 13.2312C12.8 13.2312 13.23 12.8012 13.23 12.2712L13.2296 12.2712Z" fill="#0D3735"/>
<path fill-rule="evenodd" clip-rule="evenodd" d="M10.6665 8.00077C10.6665 9.47346 9.47265 10.6675 7.99978 10.6675C6.52708 10.6675 5.33306 9.47346 5.33306 8.00077C5.33306 6.5279 6.52708 5.33405 7.99978 5.33405C9.47265 5.33405 10.6665 6.5279 10.6665 8.00077V8.00077Z" fill="#0D3735"/>
</g>
<defs>
<clipPath id="clip0">
<rect width="16" height="16" fill="white"/>
</clipPath>
</defs>
</svg>
