<svg width="16" height="17" viewBox="0 0 16 17" fill="none" xmlns="http://www.w3.org/2000/svg">
<g clip-path="url(#clip0)">
<path fill-rule="evenodd" clip-rule="evenodd" d="M10.6685 3.74009L10.6685 0.310669L0.364478 0.310668L0.364478 3.74009L10.6685 3.74009Z" fill="#0D3735"/>
<path fill-rule="evenodd" clip-rule="evenodd" d="M13.8559 3.96605C14.8662 3.94379 15.6357 3.22132 15.6357 2.04814C15.6357 0.874957 14.8662 0.107971 13.8559 0.107971C12.8666 0.107971 12.0749 0.852288 12.0749 2.00362L12.0749 2.02554C12.0749 3.22132 12.8666 3.96605 13.8559 3.96605Z" fill="#0D3735"/>
<path fill-rule="evenodd" clip-rule="evenodd" d="M6.27269 16.108C9.43763 16.108 10.9106 14.4161 10.9106 12.1594C10.9106 10.3386 9.91054 9.52342 9.20894 9.06826L10.6684 9.06826L10.6684 5.63843C9.70154 5.68363 0.364435 5.63843 0.364435 5.63843L0.364434 9.06826L6.11903 9.06826C6.42698 9.06826 6.73418 9.09052 6.95466 9.18119C7.56988 9.42905 8.20685 9.99338 8.20685 10.9408C8.20685 12.1823 7.262 12.6785 5.87734 12.6785L0.364707 12.6785L0.364707 16.1078L6.27269 16.108Z" fill="#0D3735"/>
</g>
<defs>
<clipPath id="clip0">
<rect width="16" height="16" fill="white" transform="translate(0 0.107971)"/>
</clipPath>
</defs>
</svg>
